<svg xmlns="http://www.w3.org/2000/svg" viewBox="0 0 220 50" fill="none">
  <!-- Gear + arrow; wordmark outlined from Arial Bold (no font dependency at render time) -->
  <g transform="scale(1.8) translate(2, 2)">
    <path fill="#1B2B4B" d="M16.72 11.998c0-.616-2.647-4.598-2.647-4.598-.21-.362-.885-.362-1.507-.001-.622.361-.956.947-.745 1.31l.294.506.821 1.425H9.004l-1.43-.002c-.418 0-.758.61-.76 1.36v.004c.002.75.342 1.36.76 1.36l1.43-.001h3.932l-.82 1.424-.295.507c-.21.362.123.949.745 1.31.622.36 1.297.36 1.507-.002 0 0 2.647-3.982 2.647-4.598v-.004M12 19.473a7.472 7.472 0 1 1 0-14.945 7.472 7.472 0 1 1 0 14.945zM21.937 12c0-.322-.015-.64-.046-.955L24 9.63a12.032 12.032 0 0 0-.42-1.577l-2.534-.172a10.03 10.03 0 0 0-.958-1.655l1.116-2.274a12.27 12.27 0 0 0-1.156-1.157L17.773 3.91a9.909 9.909 0 0 0-1.656-.958L15.945.419A12.085 12.085 0 0 0 14.37 0l-1.415 2.108a10.124 10.124 0 0 0-1.912 0L9.631 0A12.02 12.02 0 0 0 8.05.422l-.17 2.531a9.905 9.905 0 0 0-1.657.958L3.95 2.795c-.41.36-.797.746-1.156 1.157l1.119 2.274a9.976 9.976 0 0 0-.959 1.655L.42 8.053A12.13 12.13 0 0 0 0 9.63l2.109 1.413a9.76 9.76 0 0 0 0 1.913L0 14.369a12.1 12.1 0 0 0 .42 1.579l2.534.17c.268.584.588 1.136.959 1.653l-1.12 2.275c.361.411.748.799 1.16 1.158l2.274-1.117c.517.368 1.07.69 1.654.957l.17 2.534c.513.173 1.038.317 1.578.422l1.415-2.11c.315.029.632.048.956.048.321 0 .642-.02.957-.049L14.372 24a12.208 12.208 0 0 0 1.573-.422l.172-2.534c.584-.267 1.14-.589 1.657-.957l2.274 1.117c.41-.36.796-.744 1.156-1.156l-1.115-2.274c.37-.518.69-1.07.957-1.656l2.532-.17a12.13 12.13 0 0 0 .422-1.58l-2.108-1.412a10 10 0 0 0 .045-.956"/>
    <path fill="#7ED321" d="M9 9 L15 12 L9 15 L10.5 12 Z"/>
  </g>
  <path fill="#1B2B4B" d="M55.34 12.58L53.15 12.58L53.15 10.55L55.34 10.55L55.34 12.58ZM55.34 22L53.15 22L53.15 13.70L55.34 13.70L55.34 22ZM65.14 16.84L65.14 22L62.95 22L62.95 17.77Q62.95 16.42 62.80 16.03Q62.66 15.63 62.35 15.41Q62.03 15.20 61.59 15.20L61.59 15.20Q61.02 15.20 60.56 15.51Q60.11 15.82 59.94 16.34Q59.77 16.85 59.77 18.24L59.77 18.24L59.77 22L57.58 22L57.58 13.70L59.62 13.70L59.62 14.92Q60.70 13.52 62.35 13.52L62.35 13.52Q63.08 13.52 63.68 13.78Q64.28 14.04 64.59 14.45Q64.90 14.85 65.02 15.37Q65.14 15.88 65.14 16.84L65.14 16.84ZM74.98 10.55L74.98 22L72.94 22L72.94 20.78Q72.43 21.49 71.74 21.84Q71.05 22.19 70.34 22.19L70.34 22.19Q68.91 22.19 67.89 21.04Q66.88 19.88 66.88 17.82L66.88 17.82Q66.88 15.71 67.87 14.61Q68.86 13.52 70.38 13.52L70.38 13.52Q71.77 13.52 72.78 14.67L72.78 14.67L72.78 10.55L74.98 10.55ZM69.12 17.67L69.12 17.67Q69.12 19 69.48 19.59L69.48 19.59Q70.02 20.45 70.97 20.45L70.97 20.45Q71.73 20.45 72.26 19.81Q72.79 19.16 72.79 17.88L72.79 17.88Q72.79 16.45 72.27 15.82Q71.76 15.20 70.95 15.20L70.95 15.20Q70.17 15.20 69.64 15.82Q69.12 16.44 69.12 17.67ZM84.64 22L82.60 22L82.60 20.76Q82.15 21.42 81.41 21.80Q80.67 22.19 79.85 22.19L79.85 22.19Q79.02 22.19 78.35 21.82Q77.69 21.45 77.39 20.79Q77.09 20.13 77.09 18.95L77.09 18.95L77.09 13.70L79.29 13.70L79.29 17.52Q79.29 19.27 79.41 19.66Q79.53 20.05 79.85 20.29Q80.17 20.52 80.66 20.52L80.66 20.52Q81.23 20.52 81.67 20.21Q82.12 19.90 82.28 19.44Q82.45 18.98 82.45 17.20L82.45 17.20L82.45 13.70L84.64 13.70L84.64 22ZM94.15 16.16L94.15 16.16L91.98 16.55Q91.88 15.90 91.49 15.57Q91.10 15.24 90.48 15.24L90.48 15.24Q89.66 15.24 89.18 15.81Q88.69 16.38 88.69 17.70L88.69 17.70Q88.69 19.18 89.18 19.79Q89.68 20.40 90.52 20.40L90.52 20.40Q91.14 20.40 91.54 20.04Q91.94 19.69 92.10 18.82L92.10 18.82L94.26 19.19Q93.92 20.67 92.97 21.43Q92.02 22.19 90.41 22.19L90.41 22.19Q88.59 22.19 87.51 21.04Q86.43 19.89 86.43 17.86L86.43 17.86Q86.43 15.80 87.52 14.66Q88.60 13.52 90.45 13.52L90.45 13.52Q91.97 13.52 92.86 14.17Q93.76 14.82 94.15 16.16ZM98.12 13.70L99.62 13.70L99.62 15.45L98.12 15.45L98.12 18.80Q98.12 19.81 98.16 19.98Q98.20 20.15 98.36 20.26Q98.51 20.37 98.73 20.37L98.73 20.37Q99.03 20.37 99.61 20.16L99.61 20.16L99.80 21.86Q99.03 22.19 98.06 22.19L98.06 22.19Q97.47 22.19 96.99 21.99Q96.52 21.79 96.29 21.47Q96.07 21.16 95.98 20.62L95.98 20.62Q95.91 20.23 95.91 19.07L95.91 19.07L95.91 15.45L94.91 15.45L94.91 13.70L95.91 13.70L95.91 12.05L98.12 10.77L98.12 13.70ZM103.34 12.58L101.14 12.58L101.14 10.55L103.34 10.55L103.34 12.58ZM103.34 22L101.14 22L101.14 13.70L103.34 13.70L103.34 22ZM109.84 22L107.87 22L104.52 13.70L106.83 13.70L108.39 17.94L108.84 19.35Q109.02 18.81 109.07 18.64L109.07 18.64Q109.18 18.29 109.30 17.94L109.30 17.94L110.88 13.70L113.14 13.70L109.84 22ZM119.29 19.36L119.29 19.36L121.48 19.73Q121.05 20.93 120.14 21.56Q119.23 22.19 117.87 22.19L117.87 22.19Q115.70 22.19 114.66 20.77L114.66 20.77Q113.84 19.64 113.84 17.91L113.84 17.91Q113.84 15.85 114.92 14.68Q116 13.52 117.65 13.52L117.65 13.52Q119.50 13.52 120.57 14.74Q121.64 15.96 121.59 18.48L121.59 18.48L116.09 18.48Q116.12 19.46 116.63 20.00Q117.13 20.55 117.89 20.55L117.89 20.55Q118.41 20.55 118.76 20.27Q119.11 19.98 119.29 19.36ZM116.13 17.14L119.41 17.14Q119.39 16.19 118.92 15.69Q118.45 15.20 117.78 15.20L117.78 15.20Q117.06 15.20 116.59 15.72L116.59 15.72Q116.13 16.24 116.13 17.14L116.13 17.14Z"/>
  <path fill="#1B2B4B" d="M54.79 34.23L54.79 34.23L52.80 33.88Q53.13 32.67 53.95 32.09Q54.77 31.52 56.39 31.52L56.39 31.52Q57.86 31.52 58.58 31.86Q59.30 32.21 59.59 32.75Q59.88 33.28 59.88 34.71L59.88 34.71L59.86 37.27Q59.86 38.37 59.96 38.89Q60.07 39.41 60.36 40L60.36 40L58.19 40Q58.10 39.78 57.98 39.35L57.98 39.35Q57.92 39.16 57.90 39.09L57.90 39.09Q57.34 39.64 56.70 39.91Q56.05 40.19 55.33 40.19L55.33 40.19Q54.05 40.19 53.31 39.49Q52.57 38.80 52.57 37.73L52.57 37.73Q52.57 37.03 52.91 36.48Q53.24 35.93 53.85 35.64Q54.45 35.34 55.59 35.13L55.59 35.13Q57.13 34.84 57.73 34.59L57.73 34.59L57.73 34.37Q57.73 33.73 57.41 33.46Q57.10 33.20 56.23 33.20L56.23 33.20Q55.65 33.20 55.32 33.43Q54.99 33.66 54.79 34.23ZM57.73 36.45L57.73 36.02Q57.30 36.16 56.39 36.35Q55.48 36.55 55.20 36.73L55.20 36.73Q54.77 37.04 54.77 37.51L54.77 37.51Q54.77 37.97 55.11 38.30Q55.45 38.64 55.98 38.64L55.98 38.64Q56.58 38.64 57.12 38.25L57.12 38.25Q57.52 37.95 57.64 37.52L57.64 37.52Q57.73 37.24 57.73 36.45L57.73 36.45ZM69.55 40L67.51 40L67.51 38.76Q67.05 39.42 66.32 39.80Q65.58 40.19 64.76 40.19L64.76 40.19Q63.92 40.19 63.26 39.82Q62.59 39.45 62.30 38.79Q62 38.13 62 36.95L62 36.95L62 31.70L64.20 31.70L64.20 35.52Q64.20 37.27 64.32 37.66Q64.44 38.05 64.76 38.29Q65.08 38.52 65.57 38.52L65.57 38.52Q66.13 38.52 66.58 38.21Q67.02 37.90 67.19 37.44Q67.35 36.98 67.35 35.20L67.35 35.20L67.35 31.70L69.55 31.70L69.55 40ZM74.13 31.70L75.63 31.70L75.63 33.45L74.13 33.45L74.13 36.80Q74.13 37.81 74.17 37.98Q74.21 38.15 74.36 38.26Q74.52 38.37 74.73 38.37L74.73 38.37Q75.04 38.37 75.62 38.16L75.62 38.16L75.80 39.86Q75.04 40.19 74.07 40.19L74.07 40.19Q73.48 40.19 73 39.99Q72.52 39.79 72.30 39.47Q72.08 39.16 71.99 38.62L71.99 38.62Q71.92 38.23 71.92 37.07L71.92 37.07L71.92 33.45L70.91 33.45L70.91 31.70L71.92 31.70L71.92 30.05L74.13 28.77L74.13 31.70ZM76.64 35.73L76.64 35.73Q76.64 34.64 77.18 33.62Q77.72 32.59 78.71 32.05Q79.70 31.52 80.91 31.52L80.91 31.52Q82.80 31.52 84 32.74Q85.20 33.96 85.20 35.83L85.20 35.83Q85.20 37.71 83.99 38.95Q82.77 40.19 80.93 40.19L80.93 40.19Q79.79 40.19 78.75 39.67Q77.72 39.16 77.18 38.16Q76.64 37.16 76.64 35.73ZM78.89 35.85L78.89 35.85Q78.89 37.09 79.48 37.74Q80.06 38.40 80.92 38.40L80.92 38.40Q81.78 38.40 82.36 37.74Q82.95 37.09 82.95 35.84L82.95 35.84Q82.95 34.62 82.36 33.96Q81.78 33.30 80.92 33.30L80.92 33.30Q80.06 33.30 79.48 33.96Q78.89 34.62 78.89 35.85ZM86.76 40L86.76 31.70L88.78 31.70L88.78 32.84Q89.87 31.52 91.37 31.52L91.37 31.52Q92.16 31.52 92.75 31.84Q93.34 32.17 93.71 32.84L93.71 32.84Q94.26 32.17 94.89 31.84Q95.52 31.52 96.24 31.52L96.24 31.52Q97.16 31.52 97.79 31.89Q98.42 32.26 98.73 32.98L98.73 32.98Q98.96 33.51 98.96 34.70L98.96 34.70L98.96 40L96.77 40L96.77 35.26Q96.77 34.02 96.54 33.66L96.54 33.66Q96.23 33.20 95.60 33.20L95.60 33.20Q95.14 33.20 94.73 33.48Q94.33 33.76 94.15 34.30Q93.97 34.84 93.97 36.02L93.97 36.02L93.97 40L91.77 40L91.77 35.45Q91.77 34.24 91.66 33.89Q91.54 33.54 91.29 33.37Q91.05 33.20 90.63 33.20L90.63 33.20Q90.12 33.20 89.71 33.47Q89.30 33.74 89.13 34.26Q88.95 34.77 88.95 35.97L88.95 35.97L88.95 40L86.76 40ZM102.79 34.23L102.79 34.23L100.80 33.88Q101.13 32.67 101.95 32.09Q102.77 31.52 104.39 31.52L104.39 31.52Q105.86 31.52 106.58 31.86Q107.30 32.21 107.59 32.75Q107.88 33.28 107.88 34.71L107.88 34.71L107.86 37.27Q107.86 38.37 107.96 38.89Q108.07 39.41 108.36 40L108.36 40L106.19 40Q106.10 39.78 105.98 39.35L105.98 39.35Q105.92 39.16 105.90 39.09L105.90 39.09Q105.34 39.64 104.70 39.91Q104.05 40.19 103.33 40.19L103.33 40.19Q102.05 40.19 101.31 39.49Q100.57 38.80 100.57 37.73L100.57 37.73Q100.57 37.03 100.91 36.48Q101.24 35.93 101.85 35.64Q102.45 35.34 103.59 35.13L103.59 35.13Q105.13 34.84 105.73 34.59L105.73 34.59L105.73 34.37Q105.73 33.73 105.41 33.46Q105.10 33.20 104.23 33.20L104.23 33.20Q103.65 33.20 103.32 33.43Q102.99 33.66 102.79 34.23ZM105.73 36.45L105.73 36.02Q105.30 36.16 104.39 36.35Q103.48 36.55 103.20 36.73L103.20 36.73Q102.77 37.04 102.77 37.51L102.77 37.51Q102.77 37.97 103.11 38.30Q103.45 38.64 103.98 38.64L103.98 38.64Q104.58 38.64 105.12 38.25L105.12 38.25Q105.52 37.95 105.64 37.52L105.64 37.52Q105.73 37.24 105.73 36.45L105.73 36.45ZM112.35 31.70L113.85 31.70L113.85 33.45L112.35 33.45L112.35 36.80Q112.35 37.81 112.39 37.98Q112.44 38.15 112.59 38.26Q112.74 38.37 112.96 38.37L112.96 38.37Q113.27 38.37 113.84 38.16L113.84 38.16L114.03 39.86Q113.27 40.19 112.30 40.19L112.30 40.19Q111.70 40.19 111.23 39.99Q110.75 39.79 110.53 39.47Q110.30 39.16 110.22 38.62L110.22 38.62Q110.15 38.23 110.15 37.07L110.15 37.07L110.15 33.45L109.14 33.45L109.14 31.70L110.15 31.70L110.15 30.05L112.35 28.77L112.35 31.70ZM117.57 30.58L115.38 30.58L115.38 28.55L117.57 28.55L117.57 30.58ZM117.57 40L115.38 40L115.38 31.70L117.57 31.70L117.57 40ZM119.31 35.73L119.31 35.73Q119.31 34.64 119.85 33.62Q120.39 32.59 121.38 32.05Q122.37 31.52 123.59 31.52L123.59 31.52Q125.47 31.52 126.67 32.74Q127.88 33.96 127.88 35.83L127.88 35.83Q127.88 37.71 126.66 38.95Q125.45 40.19 123.60 40.19L123.60 40.19Q122.46 40.19 121.43 39.67Q120.39 39.16 119.85 38.16Q119.31 37.16 119.31 35.73ZM121.56 35.85L121.56 35.85Q121.56 37.09 122.15 37.74Q122.73 38.40 123.59 38.40L123.59 38.40Q124.45 38.40 125.04 37.74Q125.62 37.09 125.62 35.84L125.62 35.84Q125.62 34.62 125.04 33.96Q124.45 33.30 123.59 33.30L123.59 33.30Q122.73 33.30 122.15 33.96Q121.56 34.62 121.56 35.85ZM137.14 34.84L137.14 40L134.95 40L134.95 35.77Q134.95 34.42 134.80 34.03Q134.66 33.63 134.35 33.41Q134.03 33.20 133.59 33.20L133.59 33.20Q133.02 33.20 132.56 33.51Q132.11 33.82 131.94 34.34Q131.77 34.85 131.77 36.24L131.77 36.24L131.77 40L129.58 40L129.58 31.70L131.62 31.70L131.62 32.92Q132.70 31.52 134.35 31.52L134.35 31.52Q135.08 31.52 135.68 31.78Q136.28 32.04 136.59 32.45Q136.90 32.85 137.02 33.37Q137.14 33.88 137.14 34.84L137.14 34.84ZM141.56 40L139.37 40L139.37 37.80L141.56 37.80L141.56 40Z"/>
</svg>
